PathFileType	4	(X/Y/Z)	C:\Users\Biomechanik\SynologyDrive\AlexP\Athlete_03\Athlete_3_25_03_31\Walking_08\marker_experimental.trc
DataRate	CameraRate	NumFrames	NumMarkers	Units	OrigDataRate	OrigDataStartFrame	OrigNumFrames
200.000000	200.000000	4	53	mm	200.000000	111	222
Frame#	Time	GLAB			RFHD			LFHD			C7			T6			SPINMOL			SPINM2			SPINM3			T12			BELTOL			BELT2			BELT3			SACROL			SACR2			SACR3			LTHOL			LTH2			LTH3			LSHAOL			LSHA2			LSHA3			LHEE			LTOE			LM5			RTHOL			RTH2			RTH3			RSHAOL			RSHA2			RSHA3			RHEE			RTOE			RM5			STRN			XIPH			LACR			LUAOL			LUA2			LUA3			LLAOL			LLA2			LLA3			LWRR			LWRU			RACR			RUAOL			RUA2			RUA3			RLAOL			RLA2			RLA3			RWRR			RWRU			
		X1	Y1	Z1	X2	Y2	Z2	X3	Y3	Z3	X4	Y4	Z4	X5	Y5	Z5	X6	Y6	Z6	X7	Y7	Z7	X8	Y8	Z8	X9	Y9	Z9	X10	Y10	Z10	X11	Y11	Z11	X12	Y12	Z12	X13	Y13	Z13	X14	Y14	Z14	X15	Y15	Z15	X16	Y16	Z16	X17	Y17	Z17	X18	Y18	Z18	X19	Y19	Z19	X20	Y20	Z20	X21	Y21	Z21	X22	Y22	Z22	X23	Y23	Z23	X24	Y24	Z24	X25	Y25	Z25	X26	Y26	Z26	X27	Y27	Z27	X28	Y28	Z28	X29	Y29	Z29	X30	Y30	Z30	X31	Y31	Z31	X32	Y32	Z32	X33	Y33	Z33	X34	Y34	Z34	X35	Y35	Z35	X36	Y36	Z36	X37	Y37	Z37	X38	Y38	Z38	X39	Y39	Z39	X40	Y40	Z40	X41	Y41	Z41	X42	Y42	Z42	X43	Y43	Z43	X44	Y44	Z44	X45	Y45	Z45	X46	Y46	Z46	X47	Y47	Z47	X48	Y48	Z48	X49	Y49	Z49	X50	Y50	Z50	X51	Y51	Z51	X52	Y52	Z52	X53	Y53	Z53	

112	0.555	292.6836853027342	1569.626953125	195.6381072998047	241.5918884277342	1592.22412109375	260.5804748535157	247.6068420410155	1588.533935546875	122.258903503418	77.45610046386707	1403.510864257812	188.4522094726563	13.48761844634999	1240.647583007812	188.9254608154297	4.197074413299456	1200.398803710938	168.2825469970703	-2.174426317215079	1194.1923828125	217.9216156005859	4.286140441894428	1136.466552734375	185.2226715087891	22.62741661071767	1067.900146484375	187.2913665771484	-11.11093807220468	1032.756469726562	167.9027404785156	-13.8102035522462	1032.628662109375	218.6542663574219	-19.56697463989267	971.514892578125	190.9846038818359	-1.84714555740365	921.6607055664062	160.9567718505859	-7.80428838729868	924.8601684570312	212.7102966308594	-23.88835906982431	864.9035034179688	187.9116058349609	184.778564453125	629.6119384765625	14.10874080657962	165.8351135253906	560.7811279296875	46.63846206665042	209.6899871826172	575.7880249023438	28.81459236145023	329.5247192382812	304.2999267578125	18.15295982360846	315.5055541992188	227.2925872802735	32.21019363403326	359.2401428222656	250.1627349853516	23.93244552612311	393.3056945800781	48.49923324584963	104.9625930786134	600.6754760742188	119.8289260864258	104.0823135375978	573.5297241210938	77.33601379394534	10.15686988830577	-0.804789960384481	690.1238403320312	379.8511352539062	33.88586044311513	620.2236328125	394.1582641601562	-9.440829277038681	629.974609375	370.788818359375	-138.9443359375001	368.3304748535156	369.1029663085938	-137.4390106201173	289.3094177246094	365.553466796875	-175.5516052246095	319.9363098144531	355.0550842285156	-296.6195068359376	135.1184387207031	250.7554473876953	-112.3489227294922	42.5182991027832	250.7275848388672	-156.316635131836	40.54581069946288	357.7138977050781	247.1824188232421	1296.94873046875	187.6620635986329	254.8383483886718	1151.785034179688	193.5054168701172	151.2388458251952	1361.01318359375	12.62298297882083	106.4161911010742	1208.947509765625	-85.43826293945311	77.99667358398432	1151.094604492188	-101.1151962280273	126.8525390624999	1146.345458984375	-86.93077087402341	59.96310806274411	951.3289184570312	-131.2080535888672	9.37248802185055	894.6985473632812	-108.7062911987305	52.1784515380859	890.36474609375	-134.2416229248047	47.89457702636717	786.59423828125	-143.2457427978516	101.6714553833008	773.4759521484375	-87.66909790039061	166.4275512695311	1359.052124023438	356.4122924804688	166.5302429199217	1221.13916015625	465.3335266113282	199.2080688476561	1164.462158203125	476.8789367675782	150.0893249511717	1163.228271484375	492.5698852539062	266.1008911132811	967.1293334960938	523.0252685546875	345.262481689453	960.6859741210938	529.4102783203126	312.5348510742186	926.5382690429688	513.7366333007814	393.6117248535155	886.2982177734375	504.4016113281251	420.0062866210936	910.8213500976562	430.7210083007813	
113	0.5600000000000001	300.394805908203	1569.06494140625	194.2035675048829	249.2083129882811	1591.694091796875	259.0654296875001	255.4485626220702	1588.0068359375	120.7447586059571	85.21710205078114	1402.963134765625	186.6214599609375	21.29741096496571	1240.106079101562	187.3403930664062	12.01089191436757	1199.8173828125	166.7802276611328	5.69650602340687	1193.671752929688	216.4154815673828	12.16473388671865	1135.91259765625	183.8248901367188	30.55733489990224	1067.349975585938	186.0193939208984	-3.065544605255221	1032.0966796875	166.6109619140625	-5.757719516754253	1031.961303710938	217.3393249511719	-11.49010562896738	970.8546142578125	189.7026977539062	5.956793308257971	921.0107421875	160.0589904785156	0.07779228687276826	924.1385498046875	211.8020477294922	-15.82965946197518	864.1519165039062	186.9908905029297	194.2695617675781	630.1049194335938	12.86734962463382	174.880126953125	560.8892822265625	44.32927703857425	219.0577239990234	576.1922607421875	27.47680091857914	336.2700805664062	303.9312133789062	17.95134162902838	321.3930358886719	227.2070007324219	32.31334686279303	365.321044921875	249.4928894042969	23.86441993713386	396.3978881835938	48.68602752685549	105.1493148803712	604.9817504882812	115.3316116333008	104.3939971923829	576.9140014648438	73.48692321777347	10.56584835052501	7.073318004608042	689.5341796875	379.0663146972656	41.66415405273427	619.7179565429688	393.662353515625	-1.575791120529281	629.4159545898438	370.1054077148438	-132.6119384765626	369.4075317382812	369.2923583984375	-132.2706451416016	290.3881225585938	365.6234130859375	-169.9239807128907	321.5793151855469	355.1758117675781	-293.6371459960938	139.0618133544922	251.2316894531249	-112.4305191040039	42.23895263671874	250.691650390625	-155.564437866211	40.8391990661621	357.8408203124999	254.9793243408202	1296.438842773438	186.168930053711	262.8626098632811	1151.331787109375	192.1685485839844	159.1552276611327	1360.11572265625	10.90959262847903	114.5102462768554	1207.763061523438	-86.83773040771483	86.14929199218744	1149.865844726562	-102.4543380737305	135.0008697509765	1145.161987304688	-88.21142578124997	68.11489105224607	950.0946044921875	-132.2237396240234	17.37887573242184	893.5969848632812	-109.6914901733398	60.19620513916012	889.1436767578125	-135.1785583496094	55.72741699218748	785.3863525390625	-144.0741424560547	109.3564529418945	772.1843872070312	-88.35482025146483	173.915817260742	1358.548583984375	354.8299255371094	173.6444549560545	1220.539306640625	463.6669006347657	206.1348876953123	1163.790771484375	475.3011169433594	156.980270385742	1162.66064453125	490.8573608398438	272.3680419921873	966.292236328125	521.8158569335938	351.4826660156248	959.6710815429688	528.6606445312501	318.7413940429686	925.6031494140625	512.7920532226564	399.7757568359373	885.15869140625	503.9526672363282	426.5803833007811	909.5634765625	430.3632507324219	
114	0.5650000000000001	308.1163940429686	1568.63232421875	192.7570953369141	256.8317565917967	1591.288696289062	257.5361022949219	263.3051452636718	1587.6123046875	119.2176742553711	92.99571990966786	1402.542114257812	184.7627410888672	29.12777137756337	1239.681762695312	185.7307281494141	19.84411621093739	1199.35546875	165.2550811767578	13.58413887023915	1193.27099609375	214.8899688720703	20.06810188293447	1135.477416992188	182.4011688232422	38.49748611450185	1066.92919921875	184.7359008789062	5.055674076080229	1031.571655273438	165.3385162353516	2.374807834625142	1031.424072265625	216.046142578125	-3.342042922973727	970.3272705078125	188.4339141845703	13.77711677551261	920.4632568359375	159.1965484619141	7.996881484985256	923.4892578125	210.9290618896484	-7.700026988983241	863.4752197265625	186.0853271484375	203.72705078125	630.7786865234375	11.61405467987064	183.910171508789	561.1985473632812	42.04766464233402	228.3931274414062	576.7689819335938	26.10414886474614	342.9511413574219	303.7594909667969	17.64517402648932	327.1405334472656	227.3376770019532	32.27065658569342	371.2772521972656	248.9937896728516	23.69878387451179	399.0209350585938	49.03418731689455	105.2834625244141	608.8935546875	110.6146392822266	104.618492126465	579.7987670898438	69.48121643066409	10.89922142028819	15.15202713012684	688.9025268554688	378.25244140625	49.69100189208974	619.1998291015625	393.1471252441406	6.535068511962785	628.8118286132812	369.3980712890625	-125.9426269531251	370.5167541503906	369.5072326660156	-126.7937698364259	291.5163879394531	365.7238464355469	-163.962875366211	323.2794494628906	355.3089294433593	-290.2731628417969	143.2070007324218	251.7013702392578	-112.4963684082032	41.95205307006835	250.6555023193359	-154.7506408691407	41.17844772338866	357.9598999023437	262.7902221679686	1296.058227539062	184.6470642089844	270.9183349609374	1151.010864257812	190.7928161621094	167.0985107421874	1359.322387695312	9.163619041442901	122.6735153198242	1206.663818359375	-88.25778961181638	94.38611602783197	1148.71728515625	-103.8200988769531	143.229019165039	1144.0673828125	-89.50386047363278	76.40065765380857	948.9293823242188	-133.2547149658203	25.52510070800778	892.5563354492188	-110.69970703125	68.36063385009763	887.9889526367188	-136.1247253417969	63.73068237304685	784.2435302734375	-144.9067993164062	117.1950988769531	770.9760131835938	-89.02360534667966	181.422409057617	1358.162353515625	353.2273864746094	180.7279663085936	1220.036987304688	461.9715576171876	213.0179443359373	1163.212280273438	473.6975708007813	163.8242950439451	1162.190307617188	489.1046447753907	278.5110473632811	965.5007934570312	520.5747680664062	357.5705261230467	958.6500854492188	527.9035034179689	324.7952880859373	924.6809692382812	511.8351440429688	405.760284423828	883.9764404296875	503.5178222656251	433.0081481933593	908.230712890625	430.0250854492188	
115	0.5700000000000001	315.8469238281248	1568.334594726562	191.299545288086	264.461212158203	1591.013427734375	255.9936218261719	271.174346923828	1587.35498046875	117.6789855957032	100.7889022827147	1402.2529296875	182.8814697265625	36.97494506835926	1239.378173828125	184.1014862060547	27.69371223449697	1199.017211914062	163.7120513916016	21.48441123962391	1192.994750976562	213.3496551513672	27.99072074890126	1135.1650390625	180.957275390625	46.43844223022451	1066.644287109375	183.4505004882812	13.24416255950918	1031.195190429688	164.0976867675781	10.58101367950429	1031.030639648438	214.7869262695312	4.867408752441312	969.947021484375	187.1909027099609	21.60975456237784	920.0252075195312	158.3713836669922	15.94796180725088	922.9182739257812	210.0931854248047	0.4950687289237107	862.8805541992188	185.1949920654297	213.0956726074218	631.6173706054688	10.35546970367436	192.8811340332031	561.6998291015625	39.82156753540043	237.6454772949218	577.50537109375	24.70652389526371	349.5910949707031	303.7958068847656	17.21222114562995	332.7845764160156	227.692123413086	32.04263687133795	377.1414184570312	248.6835632324219	23.413953781128	401.2474060058594	49.53078842163088	105.3535766601563	612.4398803710938	105.7820587158204	104.7594146728517	582.2466430664062	65.40533447265629	11.15514755249034	23.43099975585926	688.2313232421875	377.4110107421875	57.97074508666982	618.673583984375	392.6192932128906	14.89687156677235	628.1624755859375	368.6716003417969	-118.9179992675782	371.6601257324219	369.7490539550781	-120.9876861572266	292.6970825195312	365.8594360351562	-157.6460571289063	325.0373229980469	355.4530334472656	-286.4867858886719	147.55908203125	252.1566619873046	-112.5281448364258	41.66584777832031	250.616455078125	-153.8685607910157	41.57764053344726	358.06689453125	270.6110534667968	1295.812744140625	183.099349975586	278.9986267089843	1150.827270507812	189.3801574707032	175.0660858154296	1358.640747070312	7.389676570892366	130.906021118164	1205.659423828125	-89.69503784179685	102.7077941894531	1147.658935546875	-105.2107620239258	151.5365295410156	1143.0712890625	-90.8039627075195	84.82102203369138	947.8428344726562	-134.2992401123047	33.81195068359371	891.585205078125	-111.7311706542969	76.67353820800778	886.9096069335938	-137.0786895751953	71.90724945068358	783.1749267578125	-145.7433319091797	125.1892776489258	769.8609008789062	-89.67431640624997	188.948287963867	1357.8994140625	351.6074218750001	187.781768798828	1219.63916015625	460.2496643066407	219.8574981689451	1162.733276367188	472.0702209472657	170.6216735839842	1161.82470703125	487.3134460449219	284.5288696289061	964.7617797851562	519.3020629882812	363.5240173339842	957.6284790039062	527.1378784179689	330.6943054199217	923.7777099609375	510.8657226562501	411.5615844726561	882.75732421875	503.0955200195313	439.2854614257811	906.8269653320312	429.7062683105469	
